<svg width="109" height="18" viewBox="0 0 109 18" fill="none" xmlns="http://www.w3.org/2000/svg">
<path d="M-0.0079999 17V0.199999H3.208L13.12 12.296H11.56V0.199999H15.4V17H12.208L2.272 4.904H3.832V17H-0.0079999ZM26.7188 17.192C25.2468 17.192 23.9508 16.904 22.8308 16.328C21.7268 15.752 20.8708 14.968 20.2628 13.976C19.6548 12.968 19.3508 11.824 19.3508 10.544C19.3508 9.248 19.6468 8.104 20.2388 7.112C20.8468 6.104 21.6708 5.32 22.7108 4.76C23.7508 4.184 24.9268 3.896 26.2388 3.896C27.5028 3.896 28.6388 4.168 29.6468 4.712C30.6708 5.24 31.4788 6.008 32.0708 7.016C32.6628 8.008 32.9588 9.2 32.9588 10.592C32.9588 10.736 32.9508 10.904 32.9348 11.096C32.9188 11.272 32.9028 11.44 32.8868 11.6H22.3988V9.416H30.9188L29.4788 10.064C29.4788 9.392 29.3428 8.808 29.0708 8.312C28.7988 7.816 28.4228 7.432 27.9428 7.16C27.4628 6.872 26.9028 6.728 26.2628 6.728C25.6228 6.728 25.0548 6.872 24.5588 7.16C24.0788 7.432 23.7028 7.824 23.4308 8.336C23.1588 8.832 23.0228 9.424 23.0228 10.112V10.688C23.0228 11.392 23.1748 12.016 23.4788 12.56C23.7988 13.088 24.2388 13.496 24.7988 13.784C25.3748 14.056 26.0468 14.192 26.8148 14.192C27.5028 14.192 28.1028 14.088 28.6148 13.88C29.1428 13.672 29.6228 13.36 30.0548 12.944L32.0468 15.104C31.4548 15.776 30.7108 16.296 29.8148 16.664C28.9188 17.016 27.8868 17.192 26.7188 17.192ZM42.7954 17.192C41.4194 17.192 40.1954 16.904 39.1234 16.328C38.0674 15.752 37.2274 14.968 36.6034 13.976C35.9954 12.968 35.6914 11.824 35.6914 10.544C35.6914 9.248 35.9954 8.104 36.6034 7.112C37.2274 6.104 38.0674 5.32 39.1234 4.76C40.1954 4.184 41.4194 3.896 42.7954 3.896C44.1554 3.896 45.3714 4.184 46.4434 4.76C47.5154 5.32 48.3554 6.096 48.9634 7.088C49.5714 8.08 49.8754 9.232 49.8754 10.544C49.8754 11.824 49.5714 12.968 48.9634 13.976C48.3554 14.968 47.5154 15.752 46.4434 16.328C45.3714 16.904 44.1554 17.192 42.7954 17.192ZM42.7954 14.12C43.4194 14.12 43.9794 13.976 44.4754 13.688C44.9714 13.4 45.3634 12.992 45.6514 12.464C45.9394 11.92 46.0834 11.28 46.0834 10.544C46.0834 9.792 45.9394 9.152 45.6514 8.624C45.3634 8.096 44.9714 7.688 44.4754 7.4C43.9794 7.112 43.4194 6.968 42.7954 6.968C42.1714 6.968 41.6114 7.112 41.1154 7.4C40.6194 7.688 40.2194 8.096 39.9154 8.624C39.6274 9.152 39.4834 9.792 39.4834 10.544C39.4834 11.28 39.6274 11.92 39.9154 12.464C40.2194 12.992 40.6194 13.4 41.1154 13.688C41.6114 13.976 42.1714 14.12 42.7954 14.12ZM56.7304 17L51.3064 4.088H55.1704L59.6824 15.2H57.7624L62.4424 4.088H66.0424L60.5944 17H56.7304ZM76.2683 17V14.48L76.0283 13.928V9.416C76.0283 8.616 75.7803 7.992 75.2843 7.544C74.8043 7.096 74.0603 6.872 73.0523 6.872C72.3643 6.872 71.6843 6.984 71.0123 7.208C70.3563 7.416 69.7963 7.704 69.3323 8.072L67.9883 5.456C68.6923 4.96 69.5403 4.576 70.5323 4.304C71.5243 4.032 72.5323 3.896 73.5563 3.896C75.5243 3.896 77.0523 4.36 78.1403 5.288C79.2283 6.216 79.7723 7.664 79.7723 9.632V17H76.2683ZM72.3323 17.192C71.3243 17.192 70.4603 17.024 69.7403 16.688C69.0203 16.336 68.4683 15.864 68.0843 15.272C67.7003 14.68 67.5083 14.016 67.5083 13.28C67.5083 12.512 67.6923 11.84 68.0603 11.264C68.4443 10.688 69.0443 10.24 69.8603 9.92C70.6763 9.584 71.7403 9.416 73.0523 9.416H76.4843V11.6H73.4603C72.5803 11.6 71.9723 11.744 71.6363 12.032C71.3163 12.32 71.1563 12.68 71.1563 13.112C71.1563 13.592 71.3403 13.976 71.7083 14.264C72.0923 14.536 72.6123 14.672 73.2683 14.672C73.8923 14.672 74.4523 14.528 74.9483 14.24C75.4443 13.936 75.8043 13.496 76.0283 12.92L76.6043 14.648C76.3323 15.48 75.8363 16.112 75.1163 16.544C74.3963 16.976 73.4683 17.192 72.3323 17.192ZM89.6408 17.192C88.1208 17.192 86.9368 16.808 86.0888 16.04C85.2408 15.256 84.8168 14.096 84.8168 12.56V1.232H88.5608V12.512C88.5608 13.056 88.7048 13.48 88.9928 13.784C89.2808 14.072 89.6728 14.216 90.1688 14.216C90.7608 14.216 91.2648 14.056 91.6808 13.736L92.6888 16.376C92.3048 16.648 91.8408 16.856 91.2968 17C90.7688 17.128 90.2168 17.192 89.6408 17.192ZM82.8248 7.256V4.376H91.7768V7.256H82.8248ZM102 17.192C100.528 17.192 99.2321 16.904 98.1121 16.328C97.0081 15.752 96.1521 14.968 95.5441 13.976C94.9361 12.968 94.6321 11.824 94.6321 10.544C94.6321 9.248 94.9281 8.104 95.5201 7.112C96.1281 6.104 96.9521 5.32 97.9921 4.76C99.0321 4.184 100.208 3.896 101.52 3.896C102.784 3.896 103.92 4.168 104.928 4.712C105.952 5.24 106.76 6.008 107.352 7.016C107.944 8.008 108.24 9.2 108.24 10.592C108.24 10.736 108.232 10.904 108.216 11.096C108.2 11.272 108.184 11.44 108.168 11.6H97.6801V9.416H106.2L104.76 10.064C104.76 9.392 104.624 8.808 104.352 8.312C104.08 7.816 103.704 7.432 103.224 7.16C102.744 6.872 102.184 6.728 101.544 6.728C100.904 6.728 100.336 6.872 99.8401 7.16C99.3601 7.432 98.9841 7.824 98.7121 8.336C98.4401 8.832 98.3041 9.424 98.3041 10.112V10.688C98.3041 11.392 98.4561 12.016 98.7601 12.56C99.0801 13.088 99.5201 13.496 100.08 13.784C100.656 14.056 101.328 14.192 102.096 14.192C102.784 14.192 103.384 14.088 103.896 13.88C104.424 13.672 104.904 13.36 105.336 12.944L107.328 15.104C106.736 15.776 105.992 16.296 105.096 16.664C104.2 17.016 103.168 17.192 102 17.192Z" fill="white"/>
</svg>
